<?xml version="1.0" encoding="utf-8" standalone="no"?>
<!DOCTYPE svg PUBLIC "-//W3C//DTD SVG 1.1//EN"
  "http://www.w3.org/Graphics/SVG/1.1/DTD/svg11.dtd">
<!-- Created with matplotlib (http://matplotlib.org/) -->
<svg height="345.6pt" version="1.1" viewBox="0 0 460.8 345.6" width="460.8pt" xmlns="http://www.w3.org/2000/svg" xmlns:xlink="http://www.w3.org/1999/xlink">
 <defs>
  <style type="text/css">
*{stroke-linecap:butt;stroke-linejoin:round;}
  </style>
 </defs>
 <g id="figure_1">
  <g id="patch_1">
   <path d="M 0 345.6 
L 460.8 345.6 
L 460.8 0 
L 0 0 
z
" style="fill:#ffffff;"/>
  </g>
  <g id="axes_1">
   <g id="patch_2">
    <path d="M 57.6 307.584 
L 414.72 307.584 
L 414.72 41.472 
L 57.6 41.472 
z
" style="fill:#ffffff;"/>
   </g>
   <g id="matplotlib.axis_1">
    <g id="xtick_1">
     <g id="line2d_1">
      <path clip-path="url(#p9397b18e68)" d="M 73.832727 307.584 
L 73.832727 41.472 
" style="fill:none;stroke:#b0b0b0;stroke-linecap:square;stroke-width:0.8;"/>
     </g>
     <g id="line2d_2">
      <defs>
       <path d="M 0 0 
L 0 3.5 
" id="m37d4f147cf" style="stroke:#000000;stroke-width:0.8;"/>
      </defs>
      <g>
       <use style="stroke:#000000;stroke-width:0.8;" x="73.832727" xlink:href="#m37d4f147cf" y="307.584"/>
      </g>
     </g>
     <g id="text_1">
      <!-- 0 -->
      <defs>
       <path d="M 31.78125 66.40625 
Q 24.171875 66.40625 20.328125 58.90625 
Q 16.5 51.421875 16.5 36.375 
Q 16.5 21.390625 20.328125 13.890625 
Q 24.171875 6.390625 31.78125 6.390625 
Q 39.453125 6.390625 43.28125 13.890625 
Q 47.125 21.390625 47.125 36.375 
Q 47.125 51.421875 43.28125 58.90625 
Q 39.453125 66.40625 31.78125 66.40625 
z
M 31.78125 74.21875 
Q 44.046875 74.21875 50.515625 64.515625 
Q 56.984375 54.828125 56.984375 36.375 
Q 56.984375 17.96875 50.515625 8.265625 
Q 44.046875 -1.421875 31.78125 -1.421875 
Q 19.53125 -1.421875 13.0625 8.265625 
Q 6.59375 17.96875 6.59375 36.375 
Q 6.59375 54.828125 13.0625 64.515625 
Q 19.53125 74.21875 31.78125 74.21875 
z
" id="DejaVuSans-30"/>
      </defs>
      <g transform="translate(70.651477 322.182437)scale(0.1 -0.1)">
       <use xlink:href="#DejaVuSans-30"/>
      </g>
     </g>
    </g>
    <g id="xtick_2">
     <g id="line2d_3">
      <path clip-path="url(#p9397b18e68)" d="M 152.824101 307.584 
L 152.824101 41.472 
" style="fill:none;stroke:#b0b0b0;stroke-linecap:square;stroke-width:0.8;"/>
     </g>
     <g id="line2d_4">
      <g>
       <use style="stroke:#000000;stroke-width:0.8;" x="152.824101" xlink:href="#m37d4f147cf" y="307.584"/>
      </g>
     </g>
     <g id="text_2">
      <!-- 100 -->
      <defs>
       <path d="M 12.40625 8.296875 
L 28.515625 8.296875 
L 28.515625 63.921875 
L 10.984375 60.40625 
L 10.984375 69.390625 
L 28.421875 72.90625 
L 38.28125 72.90625 
L 38.28125 8.296875 
L 54.390625 8.296875 
L 54.390625 0 
L 12.40625 0 
z
" id="DejaVuSans-31"/>
      </defs>
      <g transform="translate(143.280351 322.182437)scale(0.1 -0.1)">
       <use xlink:href="#DejaVuSans-31"/>
       <use x="63.623047" xlink:href="#DejaVuSans-30"/>
       <use x="127.246094" xlink:href="#DejaVuSans-30"/>
      </g>
     </g>
    </g>
    <g id="xtick_3">
     <g id="line2d_5">
      <path clip-path="url(#p9397b18e68)" d="M 231.815474 307.584 
L 231.815474 41.472 
" style="fill:none;stroke:#b0b0b0;stroke-linecap:square;stroke-width:0.8;"/>
     </g>
     <g id="line2d_6">
      <g>
       <use style="stroke:#000000;stroke-width:0.8;" x="231.815474" xlink:href="#m37d4f147cf" y="307.584"/>
      </g>
     </g>
     <g id="text_3">
      <!-- 200 -->
      <defs>
       <path d="M 19.1875 8.296875 
L 53.609375 8.296875 
L 53.609375 0 
L 7.328125 0 
L 7.328125 8.296875 
Q 12.9375 14.109375 22.625 23.890625 
Q 32.328125 33.6875 34.8125 36.53125 
Q 39.546875 41.84375 41.421875 45.53125 
Q 43.3125 49.21875 43.3125 52.78125 
Q 43.3125 58.59375 39.234375 62.25 
Q 35.15625 65.921875 28.609375 65.921875 
Q 23.96875 65.921875 18.8125 64.3125 
Q 13.671875 62.703125 7.8125 59.421875 
L 7.8125 69.390625 
Q 13.765625 71.78125 18.9375 73 
Q 24.125 74.21875 28.421875 74.21875 
Q 39.75 74.21875 46.484375 68.546875 
Q 53.21875 62.890625 53.21875 53.421875 
Q 53.21875 48.921875 51.53125 44.890625 
Q 49.859375 40.875 45.40625 35.40625 
Q 44.1875 33.984375 37.640625 27.21875 
Q 31.109375 20.453125 19.1875 8.296875 
z
" id="DejaVuSans-32"/>
      </defs>
      <g transform="translate(222.271724 322.182437)scale(0.1 -0.1)">
       <use xlink:href="#DejaVuSans-32"/>
       <use x="63.623047" xlink:href="#DejaVuSans-30"/>
       <use x="127.246094" xlink:href="#DejaVuSans-30"/>
      </g>
     </g>
    </g>
    <g id="xtick_4">
     <g id="line2d_7">
      <path clip-path="url(#p9397b18e68)" d="M 310.806848 307.584 
L 310.806848 41.472 
" style="fill:none;stroke:#b0b0b0;stroke-linecap:square;stroke-width:0.8;"/>
     </g>
     <g id="line2d_8">
      <g>
       <use style="stroke:#000000;stroke-width:0.8;" x="310.806848" xlink:href="#m37d4f147cf" y="307.584"/>
      </g>
     </g>
     <g id="text_4">
      <!-- 300 -->
      <defs>
       <path d="M 40.578125 39.3125 
Q 47.65625 37.796875 51.625 33 
Q 55.609375 28.21875 55.609375 21.1875 
Q 55.609375 10.40625 48.1875 4.484375 
Q 40.765625 -1.421875 27.09375 -1.421875 
Q 22.515625 -1.421875 17.65625 -0.515625 
Q 12.796875 0.390625 7.625 2.203125 
L 7.625 11.71875 
Q 11.71875 9.328125 16.59375 8.109375 
Q 21.484375 6.890625 26.8125 6.890625 
Q 36.078125 6.890625 40.9375 10.546875 
Q 45.796875 14.203125 45.796875 21.1875 
Q 45.796875 27.640625 41.28125 31.265625 
Q 36.765625 34.90625 28.71875 34.90625 
L 20.21875 34.90625 
L 20.21875 43.015625 
L 29.109375 43.015625 
Q 36.375 43.015625 40.234375 45.921875 
Q 44.09375 48.828125 44.09375 54.296875 
Q 44.09375 59.90625 40.109375 62.90625 
Q 36.140625 65.921875 28.71875 65.921875 
Q 24.65625 65.921875 20.015625 65.03125 
Q 15.375 64.15625 9.8125 62.3125 
L 9.8125 71.09375 
Q 15.4375 72.65625 20.34375 73.4375 
Q 25.25 74.21875 29.59375 74.21875 
Q 40.828125 74.21875 47.359375 69.109375 
Q 53.90625 64.015625 53.90625 55.328125 
Q 53.90625 49.265625 50.4375 45.09375 
Q 46.96875 40.921875 40.578125 39.3125 
z
" id="DejaVuSans-33"/>
      </defs>
      <g transform="translate(301.263098 322.182437)scale(0.1 -0.1)">
       <use xlink:href="#DejaVuSans-33"/>
       <use x="63.623047" xlink:href="#DejaVuSans-30"/>
       <use x="127.246094" xlink:href="#DejaVuSans-30"/>
      </g>
     </g>
    </g>
    <g id="xtick_5">
     <g id="line2d_9">
      <path clip-path="url(#p9397b18e68)" d="M 389.798222 307.584 
L 389.798222 41.472 
" style="fill:none;stroke:#b0b0b0;stroke-linecap:square;stroke-width:0.8;"/>
     </g>
     <g id="line2d_10">
      <g>
       <use style="stroke:#000000;stroke-width:0.8;" x="389.798222" xlink:href="#m37d4f147cf" y="307.584"/>
      </g>
     </g>
     <g id="text_5">
      <!-- 400 -->
      <defs>
       <path d="M 37.796875 64.3125 
L 12.890625 25.390625 
L 37.796875 25.390625 
z
M 35.203125 72.90625 
L 47.609375 72.90625 
L 47.609375 25.390625 
L 58.015625 25.390625 
L 58.015625 17.1875 
L 47.609375 17.1875 
L 47.609375 0 
L 37.796875 0 
L 37.796875 17.1875 
L 4.890625 17.1875 
L 4.890625 26.703125 
z
" id="DejaVuSans-34"/>
      </defs>
      <g transform="translate(380.254472 322.182437)scale(0.1 -0.1)">
       <use xlink:href="#DejaVuSans-34"/>
       <use x="63.623047" xlink:href="#DejaVuSans-30"/>
       <use x="127.246094" xlink:href="#DejaVuSans-30"/>
      </g>
     </g>
    </g>
    <g id="text_6">
     <!-- Generations -->
     <defs>
      <path d="M 59.515625 10.40625 
L 59.515625 29.984375 
L 43.40625 29.984375 
L 43.40625 38.09375 
L 69.28125 38.09375 
L 69.28125 6.78125 
Q 63.578125 2.734375 56.6875 0.65625 
Q 49.8125 -1.421875 42 -1.421875 
Q 24.90625 -1.421875 15.25 8.5625 
Q 5.609375 18.5625 5.609375 36.375 
Q 5.609375 54.25 15.25 64.234375 
Q 24.90625 74.21875 42 74.21875 
Q 49.125 74.21875 55.546875 72.453125 
Q 61.96875 70.703125 67.390625 67.28125 
L 67.390625 56.78125 
Q 61.921875 61.421875 55.765625 63.765625 
Q 49.609375 66.109375 42.828125 66.109375 
Q 29.4375 66.109375 22.71875 58.640625 
Q 16.015625 51.171875 16.015625 36.375 
Q 16.015625 21.625 22.71875 14.15625 
Q 29.4375 6.6875 42.828125 6.6875 
Q 48.046875 6.6875 52.140625 7.59375 
Q 56.25 8.5 59.515625 10.40625 
z
" id="DejaVuSans-47"/>
      <path d="M 56.203125 29.59375 
L 56.203125 25.203125 
L 14.890625 25.203125 
Q 15.484375 15.921875 20.484375 11.0625 
Q 25.484375 6.203125 34.421875 6.203125 
Q 39.59375 6.203125 44.453125 7.46875 
Q 49.3125 8.734375 54.109375 11.28125 
L 54.109375 2.78125 
Q 49.265625 0.734375 44.1875 -0.34375 
Q 39.109375 -1.421875 33.890625 -1.421875 
Q 20.796875 -1.421875 13.15625 6.1875 
Q 5.515625 13.8125 5.515625 26.8125 
Q 5.515625 40.234375 12.765625 48.109375 
Q 20.015625 56 32.328125 56 
Q 43.359375 56 49.78125 48.890625 
Q 56.203125 41.796875 56.203125 29.59375 
z
M 47.21875 32.234375 
Q 47.125 39.59375 43.09375 43.984375 
Q 39.0625 48.390625 32.421875 48.390625 
Q 24.90625 48.390625 20.390625 44.140625 
Q 15.875 39.890625 15.1875 32.171875 
z
" id="DejaVuSans-65"/>
      <path d="M 54.890625 33.015625 
L 54.890625 0 
L 45.90625 0 
L 45.90625 32.71875 
Q 45.90625 40.484375 42.875 44.328125 
Q 39.84375 48.1875 33.796875 48.1875 
Q 26.515625 48.1875 22.3125 43.546875 
Q 18.109375 38.921875 18.109375 30.90625 
L 18.109375 0 
L 9.078125 0 
L 9.078125 54.6875 
L 18.109375 54.6875 
L 18.109375 46.1875 
Q 21.34375 51.125 25.703125 53.5625 
Q 30.078125 56 35.796875 56 
Q 45.21875 56 50.046875 50.171875 
Q 54.890625 44.34375 54.890625 33.015625 
z
" id="DejaVuSans-6e"/>
      <path d="M 41.109375 46.296875 
Q 39.59375 47.171875 37.8125 47.578125 
Q 36.03125 48 33.890625 48 
Q 26.265625 48 22.1875 43.046875 
Q 18.109375 38.09375 18.109375 28.8125 
L 18.109375 0 
L 9.078125 0 
L 9.078125 54.6875 
L 18.109375 54.6875 
L 18.109375 46.1875 
Q 20.953125 51.171875 25.484375 53.578125 
Q 30.03125 56 36.53125 56 
Q 37.453125 56 38.578125 55.875 
Q 39.703125 55.765625 41.0625 55.515625 
z
" id="DejaVuSans-72"/>
      <path d="M 34.28125 27.484375 
Q 23.390625 27.484375 19.1875 25 
Q 14.984375 22.515625 14.984375 16.5 
Q 14.984375 11.71875 18.140625 8.90625 
Q 21.296875 6.109375 26.703125 6.109375 
Q 34.1875 6.109375 38.703125 11.40625 
Q 43.21875 16.703125 43.21875 25.484375 
L 43.21875 27.484375 
z
M 52.203125 31.203125 
L 52.203125 0 
L 43.21875 0 
L 43.21875 8.296875 
Q 40.140625 3.328125 35.546875 0.953125 
Q 30.953125 -1.421875 24.3125 -1.421875 
Q 15.921875 -1.421875 10.953125 3.296875 
Q 6 8.015625 6 15.921875 
Q 6 25.140625 12.171875 29.828125 
Q 18.359375 34.515625 30.609375 34.515625 
L 43.21875 34.515625 
L 43.21875 35.40625 
Q 43.21875 41.609375 39.140625 45 
Q 35.0625 48.390625 27.6875 48.390625 
Q 23 48.390625 18.546875 47.265625 
Q 14.109375 46.140625 10.015625 43.890625 
L 10.015625 52.203125 
Q 14.9375 54.109375 19.578125 55.046875 
Q 24.21875 56 28.609375 56 
Q 40.484375 56 46.34375 49.84375 
Q 52.203125 43.703125 52.203125 31.203125 
z
" id="DejaVuSans-61"/>
      <path d="M 18.3125 70.21875 
L 18.3125 54.6875 
L 36.8125 54.6875 
L 36.8125 47.703125 
L 18.3125 47.703125 
L 18.3125 18.015625 
Q 18.3125 11.328125 20.140625 9.421875 
Q 21.96875 7.515625 27.59375 7.515625 
L 36.8125 7.515625 
L 36.8125 0 
L 27.59375 0 
Q 17.1875 0 13.234375 3.875 
Q 9.28125 7.765625 9.28125 18.015625 
L 9.28125 47.703125 
L 2.6875 47.703125 
L 2.6875 54.6875 
L 9.28125 54.6875 
L 9.28125 70.21875 
z
" id="DejaVuSans-74"/>
      <path d="M 9.421875 54.6875 
L 18.40625 54.6875 
L 18.40625 0 
L 9.421875 0 
z
M 9.421875 75.984375 
L 18.40625 75.984375 
L 18.40625 64.59375 
L 9.421875 64.59375 
z
" id="DejaVuSans-69"/>
      <path d="M 30.609375 48.390625 
Q 23.390625 48.390625 19.1875 42.75 
Q 14.984375 37.109375 14.984375 27.296875 
Q 14.984375 17.484375 19.15625 11.84375 
Q 23.34375 6.203125 30.609375 6.203125 
Q 37.796875 6.203125 41.984375 11.859375 
Q 46.1875 17.53125 46.1875 27.296875 
Q 46.1875 37.015625 41.984375 42.703125 
Q 37.796875 48.390625 30.609375 48.390625 
z
M 30.609375 56 
Q 42.328125 56 49.015625 48.375 
Q 55.71875 40.765625 55.71875 27.296875 
Q 55.71875 13.875 49.015625 6.21875 
Q 42.328125 -1.421875 30.609375 -1.421875 
Q 18.84375 -1.421875 12.171875 6.21875 
Q 5.515625 13.875 5.515625 27.296875 
Q 5.515625 40.765625 12.171875 48.375 
Q 18.84375 56 30.609375 56 
z
" id="DejaVuSans-6f"/>
      <path d="M 44.28125 53.078125 
L 44.28125 44.578125 
Q 40.484375 46.53125 36.375 47.5 
Q 32.28125 48.484375 27.875 48.484375 
Q 21.1875 48.484375 17.84375 46.4375 
Q 14.5 44.390625 14.5 40.28125 
Q 14.5 37.15625 16.890625 35.375 
Q 19.28125 33.59375 26.515625 31.984375 
L 29.59375 31.296875 
Q 39.15625 29.25 43.1875 25.515625 
Q 47.21875 21.78125 47.21875 15.09375 
Q 47.21875 7.46875 41.1875 3.015625 
Q 35.15625 -1.421875 24.609375 -1.421875 
Q 20.21875 -1.421875 15.453125 -0.5625 
Q 10.6875 0.296875 5.421875 2 
L 5.421875 11.28125 
Q 10.40625 8.6875 15.234375 7.390625 
Q 20.0625 6.109375 24.8125 6.109375 
Q 31.15625 6.109375 34.5625 8.28125 
Q 37.984375 10.453125 37.984375 14.40625 
Q 37.984375 18.0625 35.515625 20.015625 
Q 33.0625 21.96875 24.703125 23.78125 
L 21.578125 24.515625 
Q 13.234375 26.265625 9.515625 29.90625 
Q 5.8125 33.546875 5.8125 39.890625 
Q 5.8125 47.609375 11.28125 51.796875 
Q 16.75 56 26.8125 56 
Q 31.78125 56 36.171875 55.265625 
Q 40.578125 54.546875 44.28125 53.078125 
z
" id="DejaVuSans-73"/>
     </defs>
     <g transform="translate(205.662344 335.860562)scale(0.1 -0.1)">
      <use xlink:href="#DejaVuSans-47"/>
      <use x="77.490234" xlink:href="#DejaVuSans-65"/>
      <use x="139.013672" xlink:href="#DejaVuSans-6e"/>
      <use x="202.392578" xlink:href="#DejaVuSans-65"/>
      <use x="263.916016" xlink:href="#DejaVuSans-72"/>
      <use x="305.029297" xlink:href="#DejaVuSans-61"/>
      <use x="366.308594" xlink:href="#DejaVuSans-74"/>
      <use x="405.517578" xlink:href="#DejaVuSans-69"/>
      <use x="433.300781" xlink:href="#DejaVuSans-6f"/>
      <use x="494.482422" xlink:href="#DejaVuSans-6e"/>
      <use x="557.861328" xlink:href="#DejaVuSans-73"/>
     </g>
    </g>
   </g>
   <g id="matplotlib.axis_2">
    <g id="ytick_1">
     <g id="line2d_11">
      <path clip-path="url(#p9397b18e68)" d="M 57.6 307.584 
L 414.72 307.584 
" style="fill:none;stroke:#b0b0b0;stroke-linecap:square;stroke-width:0.8;"/>
     </g>
     <g id="line2d_12">
      <defs>
       <path d="M 0 0 
L -3.5 0 
" id="ma92c87af0f" style="stroke:#000000;stroke-width:0.8;"/>
      </defs>
      <g>
       <use style="stroke:#000000;stroke-width:0.8;" x="57.6" xlink:href="#ma92c87af0f" y="307.584"/>
      </g>
     </g>
     <g id="text_7">
      <!-- $\mathdefault{3.80066\times10^{-1}}$ -->
      <defs>
       <path d="M 10.6875 12.40625 
L 21 12.40625 
L 21 0 
L 10.6875 0 
z
" id="DejaVuSans-2e"/>
       <path d="M 31.78125 34.625 
Q 24.75 34.625 20.71875 30.859375 
Q 16.703125 27.09375 16.703125 20.515625 
Q 16.703125 13.921875 20.71875 10.15625 
Q 24.75 6.390625 31.78125 6.390625 
Q 38.8125 6.390625 42.859375 10.171875 
Q 46.921875 13.96875 46.921875 20.515625 
Q 46.921875 27.09375 42.890625 30.859375 
Q 38.875 34.625 31.78125 34.625 
z
M 21.921875 38.8125 
Q 15.578125 40.375 12.03125 44.71875 
Q 8.5 49.078125 8.5 55.328125 
Q 8.5 64.0625 14.71875 69.140625 
Q 20.953125 74.21875 31.78125 74.21875 
Q 42.671875 74.21875 48.875 69.140625 
Q 55.078125 64.0625 55.078125 55.328125 
Q 55.078125 49.078125 51.53125 44.71875 
Q 48 40.375 41.703125 38.8125 
Q 48.828125 37.15625 52.796875 32.3125 
Q 56.78125 27.484375 56.78125 20.515625 
Q 56.78125 9.90625 50.3125 4.234375 
Q 43.84375 -1.421875 31.78125 -1.421875 
Q 19.734375 -1.421875 13.25 4.234375 
Q 6.78125 9.90625 6.78125 20.515625 
Q 6.78125 27.484375 10.78125 32.3125 
Q 14.796875 37.15625 21.921875 38.8125 
z
M 18.3125 54.390625 
Q 18.3125 48.734375 21.84375 45.5625 
Q 25.390625 42.390625 31.78125 42.390625 
Q 38.140625 42.390625 41.71875 45.5625 
Q 45.3125 48.734375 45.3125 54.390625 
Q 45.3125 60.0625 41.71875 63.234375 
Q 38.140625 66.40625 31.78125 66.40625 
Q 25.390625 66.40625 21.84375 63.234375 
Q 18.3125 60.0625 18.3125 54.390625 
z
" id="DejaVuSans-38"/>
       <path d="M 33.015625 40.375 
Q 26.375 40.375 22.484375 35.828125 
Q 18.609375 31.296875 18.609375 23.390625 
Q 18.609375 15.53125 22.484375 10.953125 
Q 26.375 6.390625 33.015625 6.390625 
Q 39.65625 6.390625 43.53125 10.953125 
Q 47.40625 15.53125 47.40625 23.390625 
Q 47.40625 31.296875 43.53125 35.828125 
Q 39.65625 40.375 33.015625 40.375 
z
M 52.59375 71.296875 
L 52.59375 62.3125 
Q 48.875 64.0625 45.09375 64.984375 
Q 41.3125 65.921875 37.59375 65.921875 
Q 27.828125 65.921875 22.671875 59.328125 
Q 17.53125 52.734375 16.796875 39.40625 
Q 19.671875 43.65625 24.015625 45.921875 
Q 28.375 48.1875 33.59375 48.1875 
Q 44.578125 48.1875 50.953125 41.515625 
Q 57.328125 34.859375 57.328125 23.390625 
Q 57.328125 12.15625 50.6875 5.359375 
Q 44.046875 -1.421875 33.015625 -1.421875 
Q 20.359375 -1.421875 13.671875 8.265625 
Q 6.984375 17.96875 6.984375 36.375 
Q 6.984375 53.65625 15.1875 63.9375 
Q 23.390625 74.21875 37.203125 74.21875 
Q 40.921875 74.21875 44.703125 73.484375 
Q 48.484375 72.75 52.59375 71.296875 
z
" id="DejaVuSans-36"/>
       <path d="M 70.125 53.71875 
L 47.796875 31.296875 
L 70.125 8.984375 
L 64.3125 3.078125 
L 41.890625 25.484375 
L 19.484375 3.078125 
L 13.71875 8.984375 
L 35.984375 31.296875 
L 13.71875 53.71875 
L 19.484375 59.625 
L 41.890625 37.203125 
L 64.3125 59.625 
z
" id="DejaVuSans-d7"/>
       <path d="M 10.59375 35.5 
L 73.1875 35.5 
L 73.1875 27.203125 
L 10.59375 27.203125 
z
" id="DejaVuSans-2212"/>
      </defs>
      <g transform="translate(-26.5 311.383219)scale(0.1 -0.1)">
       <use transform="translate(0 0.684375)" xlink:href="#DejaVuSans-33"/>
       <use transform="translate(63.623047 0.684375)" xlink:href="#DejaVuSans-2e"/>
       <use transform="translate(95.378906 0.684375)" xlink:href="#DejaVuSans-38"/>
       <use transform="translate(159.001953 0.684375)" xlink:href="#DejaVuSans-30"/>
       <use transform="translate(222.625 0.684375)" xlink:href="#DejaVuSans-30"/>
       <use transform="translate(286.248047 0.684375)" xlink:href="#DejaVuSans-36"/>
       <use transform="translate(349.871094 0.684375)" xlink:href="#DejaVuSans-36"/>
       <use transform="translate(432.976562 0.684375)" xlink:href="#DejaVuSans-d7"/>
       <use transform="translate(536.248047 0.684375)" xlink:href="#DejaVuSans-31"/>
       <use transform="translate(599.871094 0.684375)" xlink:href="#DejaVuSans-30"/>
       <use transform="translate(664.451172 38.965625)scale(0.7)" xlink:href="#DejaVuSans-2212"/>
       <use transform="translate(723.103516 38.965625)scale(0.7)" xlink:href="#DejaVuSans-31"/>
      </g>
     </g>
    </g>
    <g id="ytick_2">
     <g id="line2d_13">
      <path clip-path="url(#p9397b18e68)" d="M 57.6 41.472 
L 414.72 41.472 
" style="fill:none;stroke:#b0b0b0;stroke-linecap:square;stroke-width:0.8;"/>
     </g>
     <g id="line2d_14">
      <g>
       <use style="stroke:#000000;stroke-width:0.8;" x="57.6" xlink:href="#ma92c87af0f" y="41.472"/>
      </g>
     </g>
     <g id="text_8">
      <!-- $\mathdefault{8.66786\times10^{-1}}$ -->
      <defs>
       <path d="M 8.203125 72.90625 
L 55.078125 72.90625 
L 55.078125 68.703125 
L 28.609375 0 
L 18.3125 0 
L 43.21875 64.59375 
L 8.203125 64.59375 
z
" id="DejaVuSans-37"/>
      </defs>
      <g transform="translate(-26.5 45.271219)scale(0.1 -0.1)">
       <use transform="translate(0 0.684375)" xlink:href="#DejaVuSans-38"/>
       <use transform="translate(63.623047 0.684375)" xlink:href="#DejaVuSans-2e"/>
       <use transform="translate(95.410156 0.684375)" xlink:href="#DejaVuSans-36"/>
       <use transform="translate(159.033203 0.684375)" xlink:href="#DejaVuSans-36"/>
       <use transform="translate(222.65625 0.684375)" xlink:href="#DejaVuSans-37"/>
       <use transform="translate(286.279297 0.684375)" xlink:href="#DejaVuSans-38"/>
       <use transform="translate(349.902344 0.684375)" xlink:href="#DejaVuSans-36"/>
       <use transform="translate(433.007812 0.684375)" xlink:href="#DejaVuSans-d7"/>
       <use transform="translate(536.279297 0.684375)" xlink:href="#DejaVuSans-31"/>
       <use transform="translate(599.902344 0.684375)" xlink:href="#DejaVuSans-30"/>
       <use transform="translate(664.482422 38.965625)scale(0.7)" xlink:href="#DejaVuSans-2212"/>
       <use transform="translate(723.134766 38.965625)scale(0.7)" xlink:href="#DejaVuSans-31"/>
      </g>
     </g>
    </g>
    <g id="ytick_3">
     <g id="line2d_15">
      <defs>
       <path d="M 0 0 
L -2 0 
" id="m7da1c4f86d" style="stroke:#000000;stroke-width:0.6;"/>
      </defs>
      <g>
       <use style="stroke:#000000;stroke-width:0.6;" x="57.6" xlink:href="#m7da1c4f86d" y="307.584"/>
      </g>
     </g>
    </g>
    <g id="ytick_4">
     <g id="line2d_16">
      <g>
       <use style="stroke:#000000;stroke-width:0.6;" x="57.6" xlink:href="#m7da1c4f86d" y="41.472"/>
      </g>
     </g>
    </g>
    <g id="text_9">
     <!-- Fitness -->
     <defs>
      <path d="M 9.8125 72.90625 
L 51.703125 72.90625 
L 51.703125 64.59375 
L 19.671875 64.59375 
L 19.671875 43.109375 
L 48.578125 43.109375 
L 48.578125 34.8125 
L 19.671875 34.8125 
L 19.671875 0 
L 9.8125 0 
z
" id="DejaVuSans-46"/>
     </defs>
     <g transform="translate(-32.579688 192.202219)rotate(-90)scale(0.1 -0.1)">
      <use xlink:href="#DejaVuSans-46"/>
      <use x="57.410156" xlink:href="#DejaVuSans-69"/>
      <use x="85.193359" xlink:href="#DejaVuSans-74"/>
      <use x="124.402344" xlink:href="#DejaVuSans-6e"/>
      <use x="187.78125" xlink:href="#DejaVuSans-65"/>
      <use x="249.304688" xlink:href="#DejaVuSans-73"/>
      <use x="301.404297" xlink:href="#DejaVuSans-73"/>
     </g>
    </g>
   </g>
   <g id="line2d_17">
    <path clip-path="url(#p9397b18e68)" d="M 73.832727 216.455566 
L 74.622641 193.710187 
L 75.412555 180.800477 
L 76.202468 174.650446 
L 76.992382 180.032466 
L 77.782296 171.667209 
L 78.57221 173.230903 
L 79.362123 175.567871 
L 80.152037 163.384442 
L 80.941951 156.610308 
L 81.731865 161.890175 
L 82.521778 153.423771 
L 83.311692 158.834371 
L 84.101606 150.66574 
L 84.89152 158.469126 
L 85.681433 160.193618 
L 86.471347 153.085956 
L 87.261261 154.335986 
L 88.051175 158.674042 
L 88.841088 172.573771 
L 89.631002 157.922702 
L 90.420916 151.006455 
L 91.210829 159.830386 
L 92.000743 152.745623 
L 92.790657 154.499131 
L 93.580571 176.695026 
L 94.370484 174.460192 
L 95.950312 159.119207 
L 96.740226 156.44865 
L 97.530139 160.309541 
L 98.320053 161.909452 
L 99.109967 152.27693 
L 99.899881 150.412684 
L 100.689794 142.272567 
L 101.479708 149.397507 
L 102.269622 141.754075 
L 103.059536 150.575932 
L 103.849449 151.49164 
L 104.639363 150.569765 
L 105.429277 144.83808 
L 106.21919 142.584476 
L 107.009104 142.496368 
L 107.799018 156.497182 
L 108.588932 150.263293 
L 109.378845 141.238014 
L 110.168759 151.566121 
L 110.958673 168.863496 
L 111.748587 152.957969 
L 112.5385 147.932436 
L 113.328414 149.921664 
L 114.118328 159.281533 
L 114.908242 153.501957 
L 115.698155 146.587297 
L 116.488069 155.430623 
L 117.277983 159.445008 
L 118.067896 152.059409 
L 118.85781 151.747546 
L 119.647724 156.440944 
L 120.437638 148.371714 
L 121.227551 155.702817 
L 122.017465 143.993972 
L 122.807379 149.885941 
L 123.597293 147.181659 
L 124.387206 151.096996 
L 125.17712 146.469361 
L 125.967034 152.537358 
L 126.756948 165.625971 
L 127.546861 159.714685 
L 128.336775 135.096995 
L 129.126689 145.949844 
L 129.916603 140.475484 
L 130.706516 146.906146 
L 131.49643 149.835196 
L 132.286344 154.174038 
L 133.076257 141.888434 
L 133.866171 141.491527 
L 134.656085 157.337365 
L 135.445999 152.952165 
L 136.235912 143.661114 
L 137.025826 157.776821 
L 137.81574 162.441234 
L 138.605654 154.984731 
L 139.395567 134.906851 
L 140.185481 152.239121 
L 140.975395 150.762812 
L 141.765309 154.205335 
L 142.555222 140.892903 
L 143.345136 147.133092 
L 144.13505 146.396268 
L 144.924964 145.202156 
L 145.714877 152.172542 
L 146.504791 144.714246 
L 148.084618 154.547423 
L 148.874532 145.840251 
L 149.664446 148.456123 
L 150.45436 158.270232 
L 151.244273 139.017304 
L 152.034187 140.922702 
L 152.824101 145.823322 
L 153.614015 141.250051 
L 154.403928 146.037581 
L 155.193842 140.43784 
L 155.983756 143.912115 
L 156.77367 135.749008 
L 157.563583 145.452385 
L 158.353497 141.833746 
L 159.143411 142.291734 
L 159.933324 147.045004 
L 160.723238 143.534897 
L 161.513152 142.087224 
L 162.303066 143.553878 
L 163.092979 150.983823 
L 163.882893 137.003921 
L 164.672807 142.66344 
L 165.462721 150.226207 
L 166.252634 140.119427 
L 167.042548 150.91826 
L 167.832462 146.403667 
L 168.622376 167.605119 
L 169.412289 153.59669 
L 170.202203 153.547293 
L 170.992117 155.097672 
L 171.782031 139.248822 
L 172.571944 147.254518 
L 173.361858 156.768325 
L 174.151772 152.400764 
L 174.941685 143.553173 
L 175.731599 164.569368 
L 176.521513 152.726941 
L 177.311427 139.101464 
L 178.10134 145.17358 
L 178.891254 147.270301 
L 179.681168 149.744504 
L 180.471082 145.166359 
L 181.260995 151.141499 
L 182.050909 147.258395 
L 182.840823 154.764272 
L 183.630737 151.604211 
L 184.42065 131.831934 
L 186.000478 154.808469 
L 186.790392 142.142144 
L 187.580305 147.887012 
L 188.370219 146.763373 
L 189.160133 145.067979 
L 189.950046 144.358 
L 190.73996 149.932913 
L 191.529874 151.735237 
L 192.319788 150.148138 
L 193.109701 139.5777 
L 193.899615 146.397656 
L 194.689529 141.765861 
L 195.479443 145.76857 
L 196.269356 142.618605 
L 197.05927 147.413127 
L 197.849184 145.119438 
L 198.639098 146.737855 
L 199.429011 154.073611 
L 200.218925 145.826494 
L 201.008839 161.839401 
L 201.798752 146.872298 
L 202.588666 155.173828 
L 203.37858 142.8685 
L 204.168494 158.031786 
L 205.748321 141.107318 
L 206.538235 147.211365 
L 207.328149 151.61705 
L 208.118062 146.40739 
L 208.907976 148.948859 
L 210.487804 148.357145 
L 211.277717 143.809717 
L 212.067631 149.119861 
L 212.857545 155.531992 
L 213.647459 165.147918 
L 214.437372 143.629145 
L 215.227286 163.179404 
L 216.0172 153.307527 
L 216.807113 152.423859 
L 217.597027 155.760384 
L 218.386941 159.757142 
L 219.176855 155.82152 
L 219.966768 153.261302 
L 220.756682 155.298607 
L 221.546596 154.895645 
L 222.33651 150.47984 
L 223.126423 155.670212 
L 223.916337 148.241228 
L 224.706251 149.383031 
L 225.496165 141.967212 
L 226.286078 151.196033 
L 227.075992 156.821997 
L 228.65582 145.685505 
L 229.445733 157.515228 
L 230.235647 138.729355 
L 231.025561 145.713524 
L 231.815474 148.65324 
L 232.605388 142.122411 
L 233.395302 152.950184 
L 234.185216 146.468754 
L 234.975129 148.017825 
L 235.765043 156.173887 
L 236.554957 136.977046 
L 238.134784 162.498664 
L 239.714612 149.496977 
L 240.504526 152.125695 
L 241.294439 144.008703 
L 242.084353 153.134333 
L 243.66418 156.098671 
L 244.454094 152.797145 
L 245.244008 146.924538 
L 246.033922 143.862388 
L 246.823835 143.848494 
L 247.613749 150.765454 
L 248.403663 144.387635 
L 249.193577 157.087666 
L 249.98349 155.012051 
L 250.773404 151.052811 
L 251.563318 138.8608 
L 252.353232 142.773821 
L 253.143145 159.812538 
L 253.933059 153.957482 
L 254.722973 142.301992 
L 255.512887 151.683326 
L 256.3028 145.409896 
L 257.092714 149.871857 
L 257.882628 156.849655 
L 258.672541 154.655346 
L 259.462455 156.976828 
L 260.252369 154.053211 
L 261.042283 151.954008 
L 261.832196 140.638623 
L 263.412024 167.406858 
L 264.201938 157.065239 
L 264.991851 155.975419 
L 265.781765 164.417946 
L 266.571679 152.619713 
L 267.361593 150.697927 
L 268.151506 152.358972 
L 268.94142 140.962495 
L 269.731334 142.743049 
L 270.521248 152.958946 
L 271.311161 150.970588 
L 272.101075 146.419788 
L 272.890989 144.761184 
L 273.680902 162.607263 
L 275.26073 135.509638 
L 276.050644 152.863426 
L 277.630471 158.539294 
L 278.420385 153.198209 
L 279.210299 151.192765 
L 280.000212 153.435135 
L 280.790126 151.670659 
L 281.58004 167.2808 
L 282.369954 151.860486 
L 283.159867 151.086076 
L 283.949781 157.470885 
L 284.739695 144.41918 
L 285.529608 146.221006 
L 286.319522 148.686273 
L 287.109436 147.682985 
L 287.89935 145.316676 
L 288.689263 144.524871 
L 289.479177 146.993802 
L 290.269091 150.699993 
L 291.059005 150.731075 
L 291.848918 136.098229 
L 292.638832 147.633832 
L 293.428746 156.298564 
L 294.21866 156.239456 
L 295.008573 148.06064 
L 295.798487 155.970605 
L 296.588401 157.3664 
L 297.378315 167.920523 
L 298.168228 152.650283 
L 298.958142 155.624057 
L 299.748056 155.994318 
L 300.537969 161.261337 
L 301.327883 156.070828 
L 302.117797 146.76313 
L 302.907711 145.783104 
L 303.697624 141.960838 
L 304.487538 151.897417 
L 305.277452 142.877389 
L 306.067366 143.73393 
L 306.857279 139.97612 
L 307.647193 141.940296 
L 308.437107 154.611161 
L 309.227021 150.624148 
L 310.016934 137.385119 
L 311.596762 152.779445 
L 312.386676 152.097332 
L 313.176589 166.057279 
L 313.966503 139.285207 
L 314.756417 141.826911 
L 316.336244 152.489225 
L 317.126158 149.306106 
L 317.916072 157.72249 
L 318.705985 142.572351 
L 319.495899 140.602924 
L 320.285813 156.376897 
L 321.075727 157.568911 
L 321.86564 137.954926 
L 322.655554 142.829081 
L 323.445468 146.397327 
L 324.235382 156.10939 
L 325.025295 138.508523 
L 325.815209 142.061551 
L 326.605123 142.15135 
L 327.395036 144.068932 
L 328.18495 151.036576 
L 328.974864 148.493173 
L 329.764778 156.975436 
L 330.554691 149.179878 
L 331.344605 143.669412 
L 332.134519 146.190904 
L 332.924433 155.529489 
L 333.714346 153.081045 
L 334.50426 148.932044 
L 335.294174 148.680682 
L 336.084088 148.996399 
L 336.874001 142.323925 
L 337.663915 143.919669 
L 339.243743 153.570727 
L 340.033656 151.417798 
L 340.82357 153.410785 
L 341.613484 148.373892 
L 342.403397 136.917738 
L 343.193311 141.219607 
L 343.983225 148.577158 
L 344.773139 147.00659 
L 345.563052 146.667374 
L 346.352966 145.727032 
L 347.14288 151.003276 
L 347.932794 138.144076 
L 348.722707 157.969793 
L 350.302535 148.956123 
L 351.092449 155.14343 
L 351.882362 158.563321 
L 352.672276 150.185957 
L 353.46219 143.416242 
L 354.252104 142.405753 
L 355.042017 134.605594 
L 355.831931 154.092471 
L 356.621845 148.461912 
L 357.411758 150.044455 
L 358.201672 153.60457 
L 358.991586 165.939696 
L 359.7815 139.932513 
L 360.571413 142.910619 
L 361.361327 139.338438 
L 362.151241 138.851403 
L 362.941155 132.67875 
L 363.731068 140.381089 
L 364.520982 140.407307 
L 365.310896 141.832374 
L 366.10081 138.097411 
L 367.680637 142.078642 
L 368.470551 136.033515 
L 369.260464 150.747377 
L 370.050378 140.927096 
L 370.840292 148.237162 
L 371.630206 137.465417 
L 372.420119 148.772608 
L 373.210033 148.7473 
L 373.999947 157.29034 
L 374.789861 158.206257 
L 375.579774 155.973486 
L 376.369688 151.781344 
L 377.159602 145.790812 
L 377.949516 155.010919 
L 378.739429 146.498164 
L 379.529343 145.142596 
L 380.319257 149.455226 
L 381.109171 149.026258 
L 381.899084 156.384862 
L 382.688998 144.960242 
L 383.478912 152.196242 
L 384.268825 146.50514 
L 385.058739 161.115785 
L 385.848653 149.107674 
L 386.638567 167.682434 
L 387.42848 151.897834 
L 388.218394 154.44927 
L 389.008308 142.450205 
L 389.798222 151.142376 
L 390.588135 153.084619 
L 391.378049 149.628497 
L 392.167963 154.843237 
L 392.957877 156.864714 
L 393.74779 157.620809 
L 394.537704 171.045142 
L 395.327618 156.520827 
L 396.117532 156.433237 
L 396.907445 148.479141 
L 397.697359 156.571686 
L 398.487273 156.911454 
L 398.487273 156.911454 
" style="fill:none;stroke:#0000ff;stroke-linecap:square;stroke-width:1.5;"/>
   </g>
   <g id="line2d_18">
    <path clip-path="url(#p9397b18e68)" d="M 73.832727 295.488 
L 74.622641 266.489242 
L 75.412555 251.360123 
L 76.202468 247.681366 
L 76.992382 259.193716 
L 77.782296 248.385359 
L 78.57221 251.329627 
L 79.362123 257.964873 
L 80.152037 242.395756 
L 80.941951 232.010208 
L 81.731865 238.427607 
L 82.521778 226.157047 
L 83.311692 230.726531 
L 84.101606 221.844282 
L 84.89152 233.99088 
L 85.681433 243.608086 
L 86.471347 220.86394 
L 87.261261 223.920974 
L 88.051175 232.540866 
L 88.841088 257.075662 
L 89.631002 228.682238 
L 90.420916 220.539784 
L 91.210829 236.305121 
L 92.000743 229.184338 
L 92.790657 229.35733 
L 93.580571 259.690703 
L 94.370484 255.840213 
L 95.160398 245.272764 
L 95.950312 229.466137 
L 96.740226 226.699786 
L 98.320053 234.85758 
L 99.109967 224.711886 
L 99.899881 218.159081 
L 100.689794 209.009504 
L 101.479708 226.568595 
L 102.269622 219.071847 
L 103.059536 230.479085 
L 103.849449 234.400849 
L 104.639363 229.631982 
L 105.429277 215.519244 
L 106.21919 213.565366 
L 107.009104 216.958547 
L 107.799018 237.650915 
L 108.588932 221.762529 
L 109.378845 209.266179 
L 110.168759 223.673766 
L 110.958673 249.069591 
L 111.748587 227.681175 
L 113.328414 226.688865 
L 114.118328 243.946845 
L 114.908242 227.153465 
L 115.698155 221.536596 
L 116.488069 238.26118 
L 117.277983 245.002482 
L 118.067896 235.065721 
L 118.85781 228.289949 
L 119.647724 237.104351 
L 120.437638 221.484161 
L 121.227551 231.210562 
L 122.017465 210.870374 
L 122.807379 223.097609 
L 123.597293 222.685722 
L 124.387206 230.420169 
L 125.17712 226.97859 
L 125.967034 224.996505 
L 126.756948 254.681208 
L 127.546861 244.895064 
L 128.336775 199.611314 
L 129.126689 221.772643 
L 129.916603 211.97506 
L 130.706516 224.914092 
L 131.49643 221.861229 
L 132.286344 237.654218 
L 133.076257 209.984353 
L 133.866171 208.275349 
L 134.656085 238.081028 
L 135.445999 231.205855 
L 136.235912 219.465906 
L 137.025826 238.326066 
L 137.81574 245.457176 
L 138.605654 237.305007 
L 139.395567 203.699394 
L 140.185481 222.8816 
L 140.975395 226.547749 
L 141.765309 240.403358 
L 142.555222 212.862665 
L 143.345136 224.011969 
L 144.13505 220.302196 
L 144.924964 217.385781 
L 145.714877 234.465205 
L 146.504791 219.593826 
L 147.294705 229.12375 
L 148.084618 228.968939 
L 148.874532 218.206848 
L 149.664446 218.793383 
L 150.45436 239.448378 
L 151.244273 208.355853 
L 152.034187 214.922566 
L 152.824101 226.69567 
L 153.614015 217.560754 
L 154.403928 219.324881 
L 155.193842 213.512887 
L 155.983756 224.928028 
L 156.77367 208.045444 
L 157.563583 216.645933 
L 158.353497 221.589113 
L 159.143411 218.976876 
L 159.933324 225.349899 
L 160.723238 219.834781 
L 161.513152 217.676894 
L 162.303066 218.903196 
L 163.092979 234.264953 
L 163.882893 202.425633 
L 164.672807 213.309723 
L 165.462721 220.863378 
L 166.252634 205.62054 
L 167.042548 228.061794 
L 167.832462 216.921417 
L 168.622376 255.040255 
L 169.412289 230.157134 
L 170.202203 226.716285 
L 170.992117 232.597964 
L 171.782031 207.293914 
L 172.571944 217.710494 
L 173.361858 238.423672 
L 174.941685 217.217295 
L 175.731599 242.508202 
L 177.311427 216.258915 
L 178.10134 215.708157 
L 178.891254 223.984278 
L 180.471082 216.401512 
L 181.260995 227.882385 
L 182.050909 225.306117 
L 182.840823 230.521308 
L 183.630737 225.155897 
L 184.42065 189.651558 
L 185.210564 218.401239 
L 186.000478 238.207866 
L 186.790392 218.653462 
L 187.580305 220.758338 
L 188.370219 219.066524 
L 189.160133 216.681208 
L 189.950046 218.769489 
L 190.73996 224.916262 
L 191.529874 232.570613 
L 192.319788 232.954781 
L 193.109701 208.542704 
L 193.899615 225.678692 
L 194.689529 211.24808 
L 195.479443 217.800485 
L 196.269356 209.586998 
L 197.05927 222.372795 
L 197.849184 220.734239 
L 198.639098 223.687849 
L 199.429011 233.851134 
L 200.218925 215.21013 
L 201.008839 243.810371 
L 201.798752 219.608527 
L 202.588666 230.069609 
L 203.37858 211.860738 
L 204.168494 237.354632 
L 204.958407 228.027207 
L 205.748321 210.066607 
L 207.328149 234.104179 
L 208.118062 222.434862 
L 208.907976 226.324877 
L 209.69789 222.931557 
L 210.487804 223.853027 
L 211.277717 216.560264 
L 212.067631 222.902132 
L 212.857545 230.282502 
L 213.647459 254.426626 
L 214.437372 217.345858 
L 215.227286 241.759156 
L 216.0172 230.968042 
L 216.807113 227.942166 
L 217.597027 234.305431 
L 218.386941 237.757893 
L 219.176855 235.487872 
L 219.966768 231.067806 
L 220.756682 231.452704 
L 221.546596 236.631352 
L 222.33651 223.937368 
L 223.126423 233.826511 
L 223.916337 222.880871 
L 224.706251 225.007276 
L 225.496165 211.284014 
L 226.286078 227.507322 
L 227.075992 235.144094 
L 227.865906 229.019959 
L 228.65582 214.251838 
L 229.445733 234.903956 
L 230.235647 208.697191 
L 231.025561 217.393909 
L 231.815474 222.559832 
L 232.605388 211.855388 
L 233.395302 225.988503 
L 234.185216 221.514294 
L 234.975129 222.157182 
L 235.765043 235.569192 
L 236.554957 205.20325 
L 237.344871 226.892083 
L 238.134784 239.341472 
L 238.924698 225.27874 
L 239.714612 217.375962 
L 240.504526 231.009585 
L 241.294439 215.081642 
L 242.084353 233.649903 
L 242.874267 226.428868 
L 243.66418 237.429373 
L 244.454094 225.111049 
L 245.244008 221.800359 
L 246.033922 214.441457 
L 246.823835 217.296996 
L 247.613749 225.207747 
L 248.403663 215.793218 
L 249.193577 235.203424 
L 249.98349 234.863054 
L 251.563318 205.086628 
L 252.353232 212.089179 
L 253.143145 240.312932 
L 253.933059 224.402952 
L 254.722973 214.015843 
L 255.512887 226.379515 
L 256.3028 217.450776 
L 257.092714 226.022626 
L 257.882628 230.203019 
L 258.672541 225.111476 
L 259.462455 238.705724 
L 260.252369 235.229914 
L 261.042283 223.697425 
L 261.832196 207.005664 
L 262.62211 235.037263 
L 263.412024 254.212477 
L 264.201938 239.080999 
L 264.991851 231.016732 
L 265.781765 247.380046 
L 266.571679 229.998706 
L 267.361593 226.589701 
L 268.151506 227.550004 
L 268.94142 209.831624 
L 269.731334 207.280048 
L 270.521248 231.888154 
L 271.311161 222.529364 
L 272.101075 217.925628 
L 272.890989 216.315201 
L 273.680902 237.219886 
L 275.26073 201.202766 
L 276.050644 226.365124 
L 276.840557 233.022262 
L 277.630471 237.327789 
L 278.420385 227.91402 
L 279.210299 227.991697 
L 280.000212 231.693907 
L 280.790126 221.584663 
L 281.58004 252.29435 
L 282.369954 220.730479 
L 283.159867 219.417574 
L 283.949781 231.689412 
L 284.739695 207.240685 
L 285.529608 216.485497 
L 286.319522 218.389317 
L 287.109436 218.746391 
L 287.89935 213.216358 
L 288.689263 212.328981 
L 289.479177 215.69901 
L 290.269091 228.57481 
L 291.059005 222.732387 
L 291.848918 199.027672 
L 292.638832 219.977904 
L 293.428746 229.46054 
L 294.21866 233.856242 
L 295.008573 223.21381 
L 295.798487 228.603906 
L 296.588401 232.891955 
L 297.378315 249.488907 
L 298.168228 220.586283 
L 298.958142 230.821039 
L 299.748056 232.730312 
L 300.537969 239.963879 
L 301.327883 231.002416 
L 302.117797 215.650527 
L 302.907711 216.333784 
L 303.697624 211.568463 
L 304.487538 231.058953 
L 305.277452 220.566422 
L 306.067366 214.541999 
L 306.857279 213.217281 
L 307.647193 210.341686 
L 308.437107 235.903461 
L 309.227021 224.916714 
L 310.016934 202.319601 
L 310.806848 218.610543 
L 311.596762 230.291768 
L 312.386676 229.801382 
L 313.176589 253.24284 
L 313.966503 202.551606 
L 314.756417 211.43467 
L 315.54633 223.517449 
L 316.336244 228.368303 
L 317.126158 224.638429 
L 317.916072 239.110421 
L 318.705985 211.172953 
L 319.495899 209.32037 
L 320.285813 233.385323 
L 321.075727 237.795228 
L 321.86564 198.21154 
L 322.655554 216.225053 
L 323.445468 211.661951 
L 324.235382 238.447655 
L 325.025295 206.924214 
L 325.815209 208.267852 
L 326.605123 208.256213 
L 327.395036 211.70258 
L 328.18495 226.251005 
L 328.974864 218.954252 
L 329.764778 233.769188 
L 331.344605 208.981819 
L 332.134519 218.906786 
L 332.924433 235.378388 
L 333.714346 225.811252 
L 334.50426 220.577817 
L 335.294174 225.059228 
L 336.084088 227.754912 
L 336.874001 205.674133 
L 337.663915 215.721452 
L 338.453829 221.226586 
L 339.243743 238.580691 
L 340.033656 228.5486 
L 340.82357 232.165823 
L 341.613484 222.837263 
L 342.403397 202.89379 
L 343.983225 222.137421 
L 344.773139 229.368628 
L 345.563052 226.680841 
L 346.352966 219.141979 
L 347.14288 231.40687 
L 347.932794 215.369821 
L 348.722707 237.202428 
L 349.512621 225.932267 
L 350.302535 227.035329 
L 351.092449 235.187898 
L 351.882362 241.549294 
L 352.672276 231.068985 
L 353.46219 211.943419 
L 354.252104 214.60561 
L 355.042017 201.446779 
L 355.831931 231.126242 
L 356.621845 224.149876 
L 357.411758 226.498456 
L 358.201672 228.256633 
L 358.991586 246.556876 
L 359.7815 212.247816 
L 360.571413 213.675764 
L 361.361327 212.634021 
L 362.151241 210.89155 
L 362.941155 196.600909 
L 363.731068 208.903948 
L 364.520982 210.649486 
L 365.310896 213.652244 
L 366.10081 209.103906 
L 366.890723 215.897003 
L 367.680637 214.065359 
L 368.470551 204.712989 
L 369.260464 233.375542 
L 370.050378 212.725602 
L 370.840292 220.804021 
L 371.630206 202.62822 
L 372.420119 224.015628 
L 373.210033 220.934583 
L 373.999947 230.187133 
L 374.789861 234.457238 
L 375.579774 235.816882 
L 377.159602 217.455166 
L 377.949516 235.506019 
L 378.739429 220.732633 
L 379.529343 221.372989 
L 380.319257 221.615812 
L 381.109171 222.181376 
L 381.899084 225.416993 
L 382.688998 210.939908 
L 383.478912 223.600513 
L 384.268825 215.226601 
L 385.058739 235.723015 
L 385.848653 223.333702 
L 386.638567 250.849024 
L 387.42848 222.234068 
L 388.218394 230.846167 
L 389.008308 209.306599 
L 389.798222 214.308098 
L 390.588135 217.870775 
L 391.378049 218.139178 
L 392.957877 235.16391 
L 393.74779 231.075085 
L 394.537704 251.765376 
L 395.327618 231.15828 
L 396.117532 235.204104 
L 396.907445 220.735057 
L 397.697359 242.478511 
L 398.487273 231.810759 
L 398.487273 231.810759 
" style="fill:none;stroke:#008000;stroke-dasharray:9.6,2.4,1.5,2.4;stroke-dashoffset:0;stroke-width:1.5;"/>
   </g>
   <g id="line2d_19">
    <path clip-path="url(#p9397b18e68)" d="M 73.832727 137.423133 
L 74.622641 120.931132 
L 75.412555 110.24083 
L 76.202468 101.619525 
L 76.992382 100.871216 
L 77.782296 94.94906 
L 78.57221 95.132178 
L 79.362123 93.170869 
L 80.152037 84.373127 
L 80.941951 81.210407 
L 81.731865 85.352744 
L 82.521778 80.690495 
L 83.311692 86.942211 
L 84.101606 79.487198 
L 84.89152 82.947371 
L 85.681433 76.779149 
L 86.471347 85.307972 
L 87.261261 84.750998 
L 88.051175 84.807218 
L 88.841088 88.071879 
L 89.631002 87.163165 
L 90.420916 81.473126 
L 91.210829 83.355651 
L 92.000743 76.306907 
L 92.790657 79.640933 
L 93.580571 93.699349 
L 94.370484 93.080172 
L 95.160398 87.656882 
L 95.950312 88.772277 
L 96.740226 86.197514 
L 97.530139 89.859635 
L 98.320053 88.961323 
L 99.109967 79.841974 
L 99.899881 82.666287 
L 100.689794 75.53563 
L 101.479708 72.226419 
L 102.269622 64.436303 
L 103.059536 70.672778 
L 103.849449 68.582431 
L 105.429277 74.156917 
L 106.21919 71.603585 
L 107.009104 68.034188 
L 107.799018 75.343449 
L 108.588932 78.764056 
L 109.378845 73.209849 
L 110.168759 79.458475 
L 110.958673 88.657401 
L 112.5385 68.635084 
L 113.328414 73.154463 
L 114.118328 74.61622 
L 114.908242 79.85045 
L 115.698155 71.637998 
L 116.488069 72.600066 
L 117.277983 73.887533 
L 118.067896 69.053097 
L 118.85781 75.205143 
L 119.647724 75.777536 
L 120.437638 75.259267 
L 121.227551 80.195071 
L 122.017465 77.117569 
L 122.807379 76.674272 
L 123.597293 71.677596 
L 124.387206 71.773822 
L 125.17712 65.960132 
L 125.967034 80.078211 
L 126.756948 76.570733 
L 127.546861 74.534305 
L 128.336775 70.582677 
L 129.126689 70.127046 
L 129.916603 68.975907 
L 130.706516 68.898199 
L 131.49643 77.809163 
L 132.286344 70.693859 
L 133.076257 73.792515 
L 133.866171 74.707704 
L 134.656085 76.593702 
L 135.445999 74.698476 
L 136.235912 67.856322 
L 137.025826 77.227577 
L 137.81574 79.425293 
L 139.395567 66.114308 
L 140.185481 81.596642 
L 141.765309 68.007311 
L 142.555222 68.923142 
L 143.345136 70.254216 
L 144.13505 72.490339 
L 144.924964 73.018531 
L 145.714877 69.879878 
L 146.504791 69.834667 
L 147.294705 70.472814 
L 148.084618 80.125908 
L 148.874532 73.473654 
L 149.664446 78.118863 
L 150.45436 77.092087 
L 151.244273 69.678755 
L 152.034187 66.922837 
L 152.824101 64.950975 
L 153.614015 64.939348 
L 154.403928 72.750281 
L 155.193842 67.362794 
L 155.983756 62.896202 
L 156.77367 63.452573 
L 157.563583 74.258836 
L 158.353497 62.078379 
L 159.933324 68.740108 
L 160.723238 67.235014 
L 161.513152 66.497553 
L 162.303066 68.204559 
L 163.092979 67.702693 
L 163.882893 71.582208 
L 164.672807 72.017156 
L 165.462721 79.589036 
L 166.252634 74.618313 
L 167.042548 73.774727 
L 167.832462 75.885917 
L 168.622376 80.169983 
L 169.412289 77.036246 
L 170.202203 80.378302 
L 170.992117 77.597381 
L 171.782031 71.20373 
L 172.571944 76.798541 
L 173.361858 75.112979 
L 174.151772 77.325638 
L 174.941685 69.889052 
L 175.731599 86.630535 
L 176.521513 75.395676 
L 177.311427 61.944013 
L 178.10134 74.639003 
L 178.891254 70.556324 
L 179.681168 79.537222 
L 180.471082 73.931205 
L 181.260995 74.400613 
L 182.050909 69.210673 
L 182.840823 79.007236 
L 183.630737 78.052525 
L 184.42065 74.01231 
L 185.210564 69.002136 
L 186.000478 71.409072 
L 186.790392 65.630827 
L 187.580305 75.015687 
L 188.370219 74.460222 
L 189.160133 73.45475 
L 189.950046 69.946511 
L 190.73996 74.949563 
L 192.319788 67.341494 
L 193.109701 70.612695 
L 193.899615 67.11662 
L 194.689529 72.283641 
L 195.479443 73.736655 
L 196.269356 75.650213 
L 197.849184 69.504637 
L 198.639098 69.787861 
L 199.429011 74.296088 
L 200.218925 76.442858 
L 201.008839 79.86843 
L 201.798752 74.136069 
L 202.588666 80.278047 
L 203.37858 73.876263 
L 204.168494 78.70894 
L 204.958407 71.56553 
L 205.748321 72.148028 
L 206.538235 72.296827 
L 207.328149 69.12992 
L 208.907976 71.572841 
L 209.69789 74.261373 
L 210.487804 72.861263 
L 211.277717 71.059171 
L 212.067631 75.33759 
L 212.857545 80.781481 
L 213.647459 75.86921 
L 214.437372 69.912433 
L 215.227286 84.599652 
L 216.0172 75.647012 
L 216.807113 76.905552 
L 217.597027 77.215337 
L 218.386941 81.756391 
L 219.176855 76.155168 
L 219.966768 75.454799 
L 220.756682 79.14451 
L 221.546596 73.159938 
L 222.33651 77.022312 
L 223.126423 77.513912 
L 223.916337 73.601585 
L 224.706251 73.758786 
L 225.496165 72.65041 
L 226.286078 74.884744 
L 227.075992 78.4999 
L 227.865906 73.017569 
L 228.65582 77.119171 
L 229.445733 80.126499 
L 230.235647 68.761519 
L 231.025561 74.033138 
L 231.815474 74.746649 
L 232.605388 72.389434 
L 233.395302 79.911864 
L 234.185216 71.423214 
L 234.975129 73.878468 
L 235.765043 76.778583 
L 236.554957 68.750842 
L 237.344871 72.921949 
L 238.134784 85.655856 
L 238.924698 85.914133 
L 239.714612 81.617991 
L 240.504526 73.241806 
L 242.084353 72.618763 
L 242.874267 82.860592 
L 243.66418 74.767969 
L 244.454094 80.483241 
L 245.244008 72.048717 
L 246.033922 73.283319 
L 246.823835 70.399992 
L 247.613749 76.323161 
L 248.403663 72.982052 
L 249.193577 78.971909 
L 249.98349 75.161048 
L 250.773404 82.43172 
L 251.563318 72.634971 
L 252.353232 73.458463 
L 253.143145 79.312145 
L 253.933059 83.512011 
L 254.722973 70.58814 
L 255.512887 76.987136 
L 256.3028 73.369016 
L 257.092714 73.721089 
L 257.882628 83.49629 
L 258.672541 84.199216 
L 259.462455 75.247931 
L 260.252369 72.876509 
L 261.042283 80.21059 
L 261.832196 74.271583 
L 262.62211 73.937 
L 263.412024 80.601238 
L 264.201938 75.049478 
L 264.991851 80.934107 
L 265.781765 81.455845 
L 266.571679 75.24072 
L 267.361593 74.806153 
L 268.151506 77.16794 
L 268.94142 72.093365 
L 269.731334 78.206049 
L 270.521248 74.029739 
L 271.311161 79.411812 
L 272.101075 74.913948 
L 272.890989 73.207167 
L 273.680902 87.994639 
L 275.26073 69.81651 
L 276.050644 79.361728 
L 276.840557 78.443696 
L 277.630471 79.7508 
L 278.420385 78.482397 
L 279.210299 74.393832 
L 280.000212 75.176363 
L 280.790126 81.756656 
L 281.58004 82.26725 
L 282.369954 82.990493 
L 283.159867 82.754578 
L 283.949781 83.252357 
L 284.739695 81.597675 
L 285.529608 75.956515 
L 286.319522 78.983229 
L 287.109436 76.619578 
L 287.89935 77.416994 
L 288.689263 76.720761 
L 289.479177 78.288595 
L 290.269091 72.825176 
L 291.059005 78.729763 
L 291.848918 73.168785 
L 292.638832 75.28976 
L 293.428746 83.136588 
L 294.21866 78.622669 
L 295.008573 72.90747 
L 295.798487 83.337303 
L 296.588401 81.840845 
L 297.378315 86.352139 
L 298.168228 84.714284 
L 298.958142 80.427074 
L 299.748056 79.258324 
L 300.537969 82.558795 
L 301.327883 81.139239 
L 302.117797 77.875734 
L 303.697624 72.353213 
L 304.487538 72.735881 
L 305.277452 65.188356 
L 306.067366 72.925862 
L 306.857279 66.734958 
L 307.647193 73.538907 
L 308.437107 73.318861 
L 309.227021 76.331582 
L 310.016934 72.450636 
L 310.806848 71.77259 
L 311.596762 75.267121 
L 312.386676 74.393283 
L 313.176589 78.871719 
L 313.966503 76.018809 
L 314.756417 72.219152 
L 315.54633 70.759066 
L 316.336244 76.610146 
L 317.126158 73.973783 
L 317.916072 76.334559 
L 319.495899 71.885477 
L 320.285813 79.368471 
L 321.075727 77.342593 
L 321.86564 77.698312 
L 322.655554 69.433108 
L 323.445468 81.132703 
L 324.235382 73.771125 
L 325.025295 70.092833 
L 325.815209 75.855251 
L 326.605123 76.046487 
L 327.395036 76.435283 
L 328.18495 75.822148 
L 329.764778 80.181684 
L 330.554691 76.407071 
L 331.344605 78.357006 
L 332.134519 73.475022 
L 332.924433 75.68059 
L 333.714346 80.350838 
L 334.50426 77.286271 
L 335.294174 72.302136 
L 336.084088 70.237886 
L 336.874001 78.973717 
L 337.663915 72.117887 
L 338.453829 76.123077 
L 339.243743 68.560762 
L 340.033656 74.286996 
L 340.82357 74.655747 
L 341.613484 73.910521 
L 342.403397 70.941686 
L 343.193311 69.792208 
L 343.983225 75.016895 
L 344.773139 64.644552 
L 345.563052 66.653907 
L 346.352966 72.312085 
L 347.14288 70.599681 
L 347.932794 60.918331 
L 348.722707 78.737159 
L 349.512621 80.637298 
L 350.302535 70.876916 
L 351.092449 75.098961 
L 351.882362 75.577348 
L 352.672276 69.302929 
L 353.46219 74.889065 
L 354.252104 70.205895 
L 355.042017 67.764409 
L 355.831931 77.0587 
L 356.621845 72.773949 
L 357.411758 73.590455 
L 358.201672 78.952506 
L 358.991586 85.322515 
L 359.7815 67.61721 
L 360.571413 72.145474 
L 361.361327 66.042855 
L 362.151241 66.811255 
L 362.941155 68.75659 
L 363.731068 71.85823 
L 364.520982 70.165128 
L 365.310896 70.012503 
L 366.890723 64.422148 
L 367.680637 70.091926 
L 368.470551 67.354041 
L 369.260464 68.119211 
L 370.050378 69.128589 
L 370.840292 75.670304 
L 371.630206 72.302613 
L 372.420119 73.529588 
L 373.210033 76.560018 
L 373.999947 84.393547 
L 374.789861 81.955275 
L 375.579774 76.13009 
L 376.369688 77.468916 
L 377.159602 74.126458 
L 377.949516 74.515819 
L 378.739429 72.263695 
L 379.529343 68.912203 
L 380.319257 77.294641 
L 381.109171 75.87114 
L 381.899084 87.352731 
L 382.688998 78.980576 
L 383.478912 80.791972 
L 384.268825 77.783678 
L 385.058739 86.508555 
L 385.848653 74.881646 
L 386.638567 84.515843 
L 387.42848 81.5616 
L 388.218394 78.052374 
L 389.008308 75.593811 
L 389.798222 87.976654 
L 390.588135 88.298462 
L 391.378049 81.117816 
L 392.167963 83.140968 
L 392.957877 78.565519 
L 394.537704 90.324908 
L 395.327618 81.883373 
L 396.117532 77.66237 
L 396.907445 76.223225 
L 397.697359 70.664862 
L 398.487273 82.012149 
L 398.487273 82.012149 
" style="fill:none;stroke:#008000;stroke-dasharray:9.6,2.4,1.5,2.4;stroke-dashoffset:0;stroke-width:1.5;"/>
   </g>
   <g id="line2d_20">
    <path clip-path="url(#p9397b18e68)" d="M 73.832727 106.084838 
L 74.622641 73.965451 
L 76.992382 73.965451 
L 78.57221 67.279347 
L 79.362123 67.279347 
L 80.152037 60.88637 
L 81.731865 60.88637 
L 82.521778 60.041567 
L 85.681433 60.041567 
L 86.471347 59.458056 
L 87.261261 58.241996 
L 90.420916 58.241996 
L 91.210829 57.959933 
L 117.277983 57.959933 
L 118.067896 56.710057 
L 156.77367 56.710057 
L 157.563583 56.558426 
L 188.370219 56.558426 
L 189.160133 56.301646 
L 308.437107 56.301646 
L 309.227021 56.087064 
L 395.327618 56.087064 
L 396.117532 55.408279 
L 397.697359 55.408279 
L 398.487273 53.568 
L 398.487273 53.568 
" style="fill:none;stroke:#ff0000;stroke-linecap:square;stroke-width:1.5;"/>
   </g>
   <g id="patch_3">
    <path d="M 57.6 307.584 
L 57.6 41.472 
" style="fill:none;stroke:#000000;stroke-linecap:square;stroke-linejoin:miter;stroke-width:0.8;"/>
   </g>
   <g id="patch_4">
    <path d="M 414.72 307.584 
L 414.72 41.472 
" style="fill:none;stroke:#000000;stroke-linecap:square;stroke-linejoin:miter;stroke-width:0.8;"/>
   </g>
   <g id="patch_5">
    <path d="M 57.6 307.584 
L 414.72 307.584 
" style="fill:none;stroke:#000000;stroke-linecap:square;stroke-linejoin:miter;stroke-width:0.8;"/>
   </g>
   <g id="patch_6">
    <path d="M 57.6 41.472 
L 414.72 41.472 
" style="fill:none;stroke:#000000;stroke-linecap:square;stroke-linejoin:miter;stroke-width:0.8;"/>
   </g>
   <g id="text_10">
    <!-- Population's average and best fitness -->
    <defs>
     <path d="M 19.671875 64.796875 
L 19.671875 37.40625 
L 32.078125 37.40625 
Q 38.96875 37.40625 42.71875 40.96875 
Q 46.484375 44.53125 46.484375 51.125 
Q 46.484375 57.671875 42.71875 61.234375 
Q 38.96875 64.796875 32.078125 64.796875 
z
M 9.8125 72.90625 
L 32.078125 72.90625 
Q 44.34375 72.90625 50.609375 67.359375 
Q 56.890625 61.8125 56.890625 51.125 
Q 56.890625 40.328125 50.609375 34.8125 
Q 44.34375 29.296875 32.078125 29.296875 
L 19.671875 29.296875 
L 19.671875 0 
L 9.8125 0 
z
" id="DejaVuSans-50"/>
     <path d="M 18.109375 8.203125 
L 18.109375 -20.796875 
L 9.078125 -20.796875 
L 9.078125 54.6875 
L 18.109375 54.6875 
L 18.109375 46.390625 
Q 20.953125 51.265625 25.265625 53.625 
Q 29.59375 56 35.59375 56 
Q 45.5625 56 51.78125 48.09375 
Q 58.015625 40.1875 58.015625 27.296875 
Q 58.015625 14.40625 51.78125 6.484375 
Q 45.5625 -1.421875 35.59375 -1.421875 
Q 29.59375 -1.421875 25.265625 0.953125 
Q 20.953125 3.328125 18.109375 8.203125 
z
M 48.6875 27.296875 
Q 48.6875 37.203125 44.609375 42.84375 
Q 40.53125 48.484375 33.40625 48.484375 
Q 26.265625 48.484375 22.1875 42.84375 
Q 18.109375 37.203125 18.109375 27.296875 
Q 18.109375 17.390625 22.1875 11.75 
Q 26.265625 6.109375 33.40625 6.109375 
Q 40.53125 6.109375 44.609375 11.75 
Q 48.6875 17.390625 48.6875 27.296875 
z
" id="DejaVuSans-70"/>
     <path d="M 8.5 21.578125 
L 8.5 54.6875 
L 17.484375 54.6875 
L 17.484375 21.921875 
Q 17.484375 14.15625 20.5 10.265625 
Q 23.53125 6.390625 29.59375 6.390625 
Q 36.859375 6.390625 41.078125 11.03125 
Q 45.3125 15.671875 45.3125 23.6875 
L 45.3125 54.6875 
L 54.296875 54.6875 
L 54.296875 0 
L 45.3125 0 
L 45.3125 8.40625 
Q 42.046875 3.421875 37.71875 1 
Q 33.40625 -1.421875 27.6875 -1.421875 
Q 18.265625 -1.421875 13.375 4.4375 
Q 8.5 10.296875 8.5 21.578125 
z
M 31.109375 56 
z
" id="DejaVuSans-75"/>
     <path d="M 9.421875 75.984375 
L 18.40625 75.984375 
L 18.40625 0 
L 9.421875 0 
z
" id="DejaVuSans-6c"/>
     <path d="M 17.921875 72.90625 
L 17.921875 45.796875 
L 9.625 45.796875 
L 9.625 72.90625 
z
" id="DejaVuSans-27"/>
     <path id="DejaVuSans-20"/>
     <path d="M 2.984375 54.6875 
L 12.5 54.6875 
L 29.59375 8.796875 
L 46.6875 54.6875 
L 56.203125 54.6875 
L 35.6875 0 
L 23.484375 0 
z
" id="DejaVuSans-76"/>
     <path d="M 45.40625 27.984375 
Q 45.40625 37.75 41.375 43.109375 
Q 37.359375 48.484375 30.078125 48.484375 
Q 22.859375 48.484375 18.828125 43.109375 
Q 14.796875 37.75 14.796875 27.984375 
Q 14.796875 18.265625 18.828125 12.890625 
Q 22.859375 7.515625 30.078125 7.515625 
Q 37.359375 7.515625 41.375 12.890625 
Q 45.40625 18.265625 45.40625 27.984375 
z
M 54.390625 6.78125 
Q 54.390625 -7.171875 48.1875 -13.984375 
Q 42 -20.796875 29.203125 -20.796875 
Q 24.46875 -20.796875 20.265625 -20.09375 
Q 16.0625 -19.390625 12.109375 -17.921875 
L 12.109375 -9.1875 
Q 16.0625 -11.328125 19.921875 -12.34375 
Q 23.78125 -13.375 27.78125 -13.375 
Q 36.625 -13.375 41.015625 -8.765625 
Q 45.40625 -4.15625 45.40625 5.171875 
L 45.40625 9.625 
Q 42.625 4.78125 38.28125 2.390625 
Q 33.9375 0 27.875 0 
Q 17.828125 0 11.671875 7.65625 
Q 5.515625 15.328125 5.515625 27.984375 
Q 5.515625 40.671875 11.671875 48.328125 
Q 17.828125 56 27.875 56 
Q 33.9375 56 38.28125 53.609375 
Q 42.625 51.21875 45.40625 46.390625 
L 45.40625 54.6875 
L 54.390625 54.6875 
z
" id="DejaVuSans-67"/>
     <path d="M 45.40625 46.390625 
L 45.40625 75.984375 
L 54.390625 75.984375 
L 54.390625 0 
L 45.40625 0 
L 45.40625 8.203125 
Q 42.578125 3.328125 38.25 0.953125 
Q 33.9375 -1.421875 27.875 -1.421875 
Q 17.96875 -1.421875 11.734375 6.484375 
Q 5.515625 14.40625 5.515625 27.296875 
Q 5.515625 40.1875 11.734375 48.09375 
Q 17.96875 56 27.875 56 
Q 33.9375 56 38.25 53.625 
Q 42.578125 51.265625 45.40625 46.390625 
z
M 14.796875 27.296875 
Q 14.796875 17.390625 18.875 11.75 
Q 22.953125 6.109375 30.078125 6.109375 
Q 37.203125 6.109375 41.296875 11.75 
Q 45.40625 17.390625 45.40625 27.296875 
Q 45.40625 37.203125 41.296875 42.84375 
Q 37.203125 48.484375 30.078125 48.484375 
Q 22.953125 48.484375 18.875 42.84375 
Q 14.796875 37.203125 14.796875 27.296875 
z
" id="DejaVuSans-64"/>
     <path d="M 48.6875 27.296875 
Q 48.6875 37.203125 44.609375 42.84375 
Q 40.53125 48.484375 33.40625 48.484375 
Q 26.265625 48.484375 22.1875 42.84375 
Q 18.109375 37.203125 18.109375 27.296875 
Q 18.109375 17.390625 22.1875 11.75 
Q 26.265625 6.109375 33.40625 6.109375 
Q 40.53125 6.109375 44.609375 11.75 
Q 48.6875 17.390625 48.6875 27.296875 
z
M 18.109375 46.390625 
Q 20.953125 51.265625 25.265625 53.625 
Q 29.59375 56 35.59375 56 
Q 45.5625 56 51.78125 48.09375 
Q 58.015625 40.1875 58.015625 27.296875 
Q 58.015625 14.40625 51.78125 6.484375 
Q 45.5625 -1.421875 35.59375 -1.421875 
Q 29.59375 -1.421875 25.265625 0.953125 
Q 20.953125 3.328125 18.109375 8.203125 
L 18.109375 0 
L 9.078125 0 
L 9.078125 75.984375 
L 18.109375 75.984375 
z
" id="DejaVuSans-62"/>
     <path d="M 37.109375 75.984375 
L 37.109375 68.5 
L 28.515625 68.5 
Q 23.6875 68.5 21.796875 66.546875 
Q 19.921875 64.59375 19.921875 59.515625 
L 19.921875 54.6875 
L 34.71875 54.6875 
L 34.71875 47.703125 
L 19.921875 47.703125 
L 19.921875 0 
L 10.890625 0 
L 10.890625 47.703125 
L 2.296875 47.703125 
L 2.296875 54.6875 
L 10.890625 54.6875 
L 10.890625 58.5 
Q 10.890625 67.625 15.140625 71.796875 
Q 19.390625 75.984375 28.609375 75.984375 
z
" id="DejaVuSans-66"/>
    </defs>
    <g transform="translate(123.315 35.472)scale(0.12 -0.12)">
     <use xlink:href="#DejaVuSans-50"/>
     <use x="60.255859" xlink:href="#DejaVuSans-6f"/>
     <use x="121.4375" xlink:href="#DejaVuSans-70"/>
     <use x="184.914062" xlink:href="#DejaVuSans-75"/>
     <use x="248.292969" xlink:href="#DejaVuSans-6c"/>
     <use x="276.076172" xlink:href="#DejaVuSans-61"/>
     <use x="337.355469" xlink:href="#DejaVuSans-74"/>
     <use x="376.564453" xlink:href="#DejaVuSans-69"/>
     <use x="404.347656" xlink:href="#DejaVuSans-6f"/>
     <use x="465.529297" xlink:href="#DejaVuSans-6e"/>
     <use x="528.908203" xlink:href="#DejaVuSans-27"/>
     <use x="556.398438" xlink:href="#DejaVuSans-73"/>
     <use x="608.498047" xlink:href="#DejaVuSans-20"/>
     <use x="640.285156" xlink:href="#DejaVuSans-61"/>
     <use x="701.564453" xlink:href="#DejaVuSans-76"/>
     <use x="760.744141" xlink:href="#DejaVuSans-65"/>
     <use x="822.267578" xlink:href="#DejaVuSans-72"/>
     <use x="863.380859" xlink:href="#DejaVuSans-61"/>
     <use x="924.660156" xlink:href="#DejaVuSans-67"/>
     <use x="988.136719" xlink:href="#DejaVuSans-65"/>
     <use x="1049.660156" xlink:href="#DejaVuSans-20"/>
     <use x="1081.447266" xlink:href="#DejaVuSans-61"/>
     <use x="1142.726562" xlink:href="#DejaVuSans-6e"/>
     <use x="1206.105469" xlink:href="#DejaVuSans-64"/>
     <use x="1269.582031" xlink:href="#DejaVuSans-20"/>
     <use x="1301.369141" xlink:href="#DejaVuSans-62"/>
     <use x="1364.845703" xlink:href="#DejaVuSans-65"/>
     <use x="1426.369141" xlink:href="#DejaVuSans-73"/>
     <use x="1478.46875" xlink:href="#DejaVuSans-74"/>
     <use x="1517.677734" xlink:href="#DejaVuSans-20"/>
     <use x="1549.464844" xlink:href="#DejaVuSans-66"/>
     <use x="1584.669922" xlink:href="#DejaVuSans-69"/>
     <use x="1612.453125" xlink:href="#DejaVuSans-74"/>
     <use x="1651.662109" xlink:href="#DejaVuSans-6e"/>
     <use x="1715.041016" xlink:href="#DejaVuSans-65"/>
     <use x="1776.564453" xlink:href="#DejaVuSans-73"/>
     <use x="1828.664062" xlink:href="#DejaVuSans-73"/>
    </g>
   </g>
   <g id="legend_1">
    <g id="patch_7">
     <path d="M 334.779375 302.584 
L 407.72 302.584 
Q 409.72 302.584 409.72 300.584 
L 409.72 242.8715 
Q 409.72 240.8715 407.72 240.8715 
L 334.779375 240.8715 
Q 332.779375 240.8715 332.779375 242.8715 
L 332.779375 300.584 
Q 332.779375 302.584 334.779375 302.584 
z
" style="fill:#ffffff;opacity:0.8;stroke:#cccccc;stroke-linejoin:miter;"/>
    </g>
    <g id="line2d_21">
     <path d="M 336.779375 248.969937 
L 356.779375 248.969937 
" style="fill:none;stroke:#0000ff;stroke-linecap:square;stroke-width:1.5;"/>
    </g>
    <g id="line2d_22"/>
    <g id="text_11">
     <!-- average -->
     <g transform="translate(364.779375 252.469937)scale(0.1 -0.1)">
      <use xlink:href="#DejaVuSans-61"/>
      <use x="61.279297" xlink:href="#DejaVuSans-76"/>
      <use x="120.458984" xlink:href="#DejaVuSans-65"/>
      <use x="181.982422" xlink:href="#DejaVuSans-72"/>
      <use x="223.095703" xlink:href="#DejaVuSans-61"/>
      <use x="284.375" xlink:href="#DejaVuSans-67"/>
      <use x="347.851562" xlink:href="#DejaVuSans-65"/>
     </g>
    </g>
    <g id="line2d_23">
     <path d="M 336.779375 263.648062 
L 356.779375 263.648062 
" style="fill:none;stroke:#008000;stroke-dasharray:9.6,2.4,1.5,2.4;stroke-dashoffset:0;stroke-width:1.5;"/>
    </g>
    <g id="line2d_24"/>
    <g id="text_12">
     <!-- -1 sd -->
     <defs>
      <path d="M 4.890625 31.390625 
L 31.203125 31.390625 
L 31.203125 23.390625 
L 4.890625 23.390625 
z
" id="DejaVuSans-2d"/>
     </defs>
     <g transform="translate(364.779375 267.148062)scale(0.1 -0.1)">
      <use xlink:href="#DejaVuSans-2d"/>
      <use x="36.083984" xlink:href="#DejaVuSans-31"/>
      <use x="99.707031" xlink:href="#DejaVuSans-20"/>
      <use x="131.494141" xlink:href="#DejaVuSans-73"/>
      <use x="183.59375" xlink:href="#DejaVuSans-64"/>
     </g>
    </g>
    <g id="line2d_25">
     <path d="M 336.779375 278.326187 
L 356.779375 278.326187 
" style="fill:none;stroke:#008000;stroke-dasharray:9.6,2.4,1.5,2.4;stroke-dashoffset:0;stroke-width:1.5;"/>
    </g>
    <g id="line2d_26"/>
    <g id="text_13">
     <!-- +1 sd -->
     <defs>
      <path d="M 46 62.703125 
L 46 35.5 
L 73.1875 35.5 
L 73.1875 27.203125 
L 46 27.203125 
L 46 0 
L 37.796875 0 
L 37.796875 27.203125 
L 10.59375 27.203125 
L 10.59375 35.5 
L 37.796875 35.5 
L 37.796875 62.703125 
z
" id="DejaVuSans-2b"/>
     </defs>
     <g transform="translate(364.779375 281.826187)scale(0.1 -0.1)">
      <use xlink:href="#DejaVuSans-2b"/>
      <use x="83.789062" xlink:href="#DejaVuSans-31"/>
      <use x="147.412109" xlink:href="#DejaVuSans-20"/>
      <use x="179.199219" xlink:href="#DejaVuSans-73"/>
      <use x="231.298828" xlink:href="#DejaVuSans-64"/>
     </g>
    </g>
    <g id="line2d_27">
     <path d="M 336.779375 293.004312 
L 356.779375 293.004312 
" style="fill:none;stroke:#ff0000;stroke-linecap:square;stroke-width:1.5;"/>
    </g>
    <g id="line2d_28"/>
    <g id="text_14">
     <!-- best -->
     <g transform="translate(364.779375 296.504312)scale(0.1 -0.1)">
      <use xlink:href="#DejaVuSans-62"/>
      <use x="63.476562" xlink:href="#DejaVuSans-65"/>
      <use x="125" xlink:href="#DejaVuSans-73"/>
      <use x="177.099609" xlink:href="#DejaVuSans-74"/>
     </g>
    </g>
   </g>
  </g>
 </g>
 <defs>
  <clipPath id="p9397b18e68">
   <rect height="266.112" width="357.12" x="57.6" y="41.472"/>
  </clipPath>
 </defs>
</svg>
