<?xml version="1.0" encoding="UTF-8" standalone="no"?>
<!DOCTYPE svg PUBLIC "-//W3C//DTD SVG 1.1//EN"
 "http://www.w3.org/Graphics/SVG/1.1/DTD/svg11.dtd">
<!-- Generated by graphviz version 2.38.0 (20140413.2041)
 -->
<!-- Title: %3 Pages: 1 -->
<svg width="331pt" height="211pt"
 viewBox="0.00 0.00 331.00 211.14" xmlns="http://www.w3.org/2000/svg" xmlns:xlink="http://www.w3.org/1999/xlink">
<g id="graph0" class="graph" transform="scale(1 1) rotate(0) translate(4 207.137)">
<title>%3</title>
<polygon fill="white" stroke="none" points="-4,4 -4,-207.137 327,-207.137 327,4 -4,4"/>
<!-- I1 -->
<g id="node1" class="node"><title>I1</title>
<polygon fill="lightgray" stroke="black" points="24,-130.56 0,-130.56 0,-112.56 24,-112.56 24,-130.56"/>
<text text-anchor="middle" x="12" y="-119.36" font-family="Times,serif" font-size="9.00">I1</text>
</g>
<!-- Output -->
<g id="node9" class="node"><title>Output</title>
<ellipse fill="lightblue" stroke="black" cx="129" cy="-28.9914" rx="28.9828" ry="28.9828"/>
<text text-anchor="middle" x="129" y="-26.7914" font-family="Times,serif" font-size="9.00">Output</text>
</g>
<!-- I1&#45;&gt;Output -->
<g id="edge8" class="edge"><title>I1&#45;&gt;Output</title>
<path fill="none" stroke="green" stroke-width="0.196644" d="M17.6416,-112.09C21.5618,-106.567 27.1211,-99.405 33,-93.9828 43.5751,-84.229 72.5091,-65.2729 95.869,-50.5129"/>
<polygon fill="green" stroke="green" stroke-width="0.196644" points="97.8946,-53.3738 104.499,-45.0894 94.1699,-47.447 97.8946,-53.3738"/>
</g>
<!-- 292 -->
<g id="node10" class="node"><title>292</title>
<ellipse fill="white" stroke="black" cx="54" cy="-28.9914" rx="21.4286" ry="21.4286"/>
<text text-anchor="middle" x="54" y="-26.7914" font-family="Times,serif" font-size="9.00">292</text>
</g>
<!-- I1&#45;&gt;292 -->
<g id="edge9" class="edge"><title>I1&#45;&gt;292</title>
<path fill="none" stroke="red" stroke-width="0.345149" d="M15.7272,-112.523C21.3948,-100.301 32.448,-76.466 41.2247,-57.5399"/>
<polygon fill="red" stroke="red" stroke-width="0.345149" points="44.4095,-58.9917 45.4413,-48.4472 38.0591,-56.0467 44.4095,-58.9917"/>
</g>
<!-- I2 -->
<g id="node2" class="node"><title>I2</title>
<polygon fill="lightgray" stroke="black" points="66,-130.56 42,-130.56 42,-112.56 66,-112.56 66,-130.56"/>
<text text-anchor="middle" x="54" y="-119.36" font-family="Times,serif" font-size="9.00">I2</text>
</g>
<!-- I2&#45;&gt;Output -->
<g id="edge6" class="edge"><title>I2&#45;&gt;Output</title>
<path fill="none" stroke="green" stroke-width="0.357351" d="M60.5521,-112.126C64.6602,-106.873 70.09,-99.9951 75,-93.9828 84.3055,-82.5881 94.6928,-70.202 103.852,-59.389"/>
<polygon fill="green" stroke="green" stroke-width="0.357351" points="106.773,-61.357 110.579,-51.4694 101.438,-56.8253 106.773,-61.357"/>
</g>
<!-- I2&#45;&gt;292 -->
<g id="edge7" class="edge"><title>I2&#45;&gt;292</title>
<path fill="none" stroke="green" stroke-width="0.419993" d="M54,-112.523C54,-100.888 54,-78.7281 54,-60.2982"/>
<polygon fill="green" stroke="green" stroke-width="0.419993" points="57.5001,-60.2603 54,-50.2603 50.5001,-60.2604 57.5001,-60.2603"/>
</g>
<!-- I3 -->
<g id="node3" class="node"><title>I3</title>
<polygon fill="lightgray" stroke="black" points="239,-203.137 215,-203.137 215,-185.137 239,-185.137 239,-203.137"/>
<text text-anchor="middle" x="227" y="-191.937" font-family="Times,serif" font-size="9.00">I3</text>
</g>
<!-- I4 -->
<g id="node4" class="node"><title>I4</title>
<polygon fill="lightgray" stroke="black" points="281,-203.137 257,-203.137 257,-185.137 281,-185.137 281,-203.137"/>
<text text-anchor="middle" x="269" y="-191.937" font-family="Times,serif" font-size="9.00">I4</text>
</g>
<!-- I5 -->
<g id="node5" class="node"><title>I5</title>
<polygon fill="lightgray" stroke="black" points="323,-203.137 299,-203.137 299,-185.137 323,-185.137 323,-203.137"/>
<text text-anchor="middle" x="311" y="-191.937" font-family="Times,serif" font-size="9.00">I5</text>
</g>
<!-- I6 -->
<g id="node6" class="node"><title>I6</title>
<polygon fill="lightgray" stroke="black" points="197,-203.137 173,-203.137 173,-185.137 197,-185.137 197,-203.137"/>
<text text-anchor="middle" x="185" y="-191.937" font-family="Times,serif" font-size="9.00">I6</text>
</g>
<!-- I6&#45;&gt;Output -->
<g id="edge4" class="edge"><title>I6&#45;&gt;Output</title>
<path fill="none" stroke="green" stroke-width="0.187768" d="M177.976,-184.947C171.107,-176.515 160.851,-162.724 155,-149.137 143.839,-123.221 137.253,-91.9961 133.502,-68.0146"/>
<polygon fill="green" stroke="green" stroke-width="0.187768" points="136.931,-67.2715 132.018,-57.8846 130.005,-68.2864 136.931,-67.2715"/>
</g>
<!-- 11852 -->
<g id="node11" class="node"><title>11852</title>
<ellipse fill="white" stroke="black" cx="234" cy="-121.56" rx="27.6545" ry="27.6545"/>
<text text-anchor="middle" x="234" y="-119.36" font-family="Times,serif" font-size="9.00">11852</text>
</g>
<!-- I6&#45;&gt;11852 -->
<g id="edge5" class="edge"><title>I6&#45;&gt;11852</title>
<path fill="none" stroke="green" stroke-width="0.667769" d="M190.621,-185.041C196.083,-177.174 204.72,-164.733 212.855,-153.016"/>
<polygon fill="green" stroke="green" stroke-width="0.667769" points="215.809,-154.899 218.637,-144.688 210.059,-150.907 215.809,-154.899"/>
</g>
<!-- I7 -->
<g id="node7" class="node"><title>I7</title>
<polygon fill="lightgray" stroke="black" points="108,-130.56 84,-130.56 84,-112.56 108,-112.56 108,-130.56"/>
<text text-anchor="middle" x="96" y="-119.36" font-family="Times,serif" font-size="9.00">I7</text>
</g>
<!-- I7&#45;&gt;Output -->
<g id="edge2" class="edge"><title>I7&#45;&gt;Output</title>
<path fill="none" stroke="green" stroke-width="0.201286" d="M98.9285,-112.523C102.726,-102.1 109.601,-83.2313 115.82,-66.1639"/>
<polygon fill="green" stroke="green" stroke-width="0.201286" points="119.242,-66.9945 119.377,-56.4006 112.665,-64.5981 119.242,-66.9945"/>
</g>
<!-- I7&#45;&gt;292 -->
<g id="edge3" class="edge"><title>I7&#45;&gt;292</title>
<path fill="none" stroke="green" stroke-width="0.400611" d="M92.2728,-112.523C86.6052,-100.301 75.552,-76.466 66.7753,-57.5399"/>
<polygon fill="green" stroke="green" stroke-width="0.400611" points="69.9409,-56.0467 62.5587,-48.4472 63.5905,-58.9917 69.9409,-56.0467"/>
</g>
<!-- I8 -->
<g id="node8" class="node"><title>I8</title>
<polygon fill="lightgray" stroke="black" points="188,-130.56 164,-130.56 164,-112.56 188,-112.56 188,-130.56"/>
<text text-anchor="middle" x="176" y="-119.36" font-family="Times,serif" font-size="9.00">I8</text>
</g>
<!-- I8&#45;&gt;Output -->
<g id="edge1" class="edge"><title>I8&#45;&gt;Output</title>
<path fill="none" stroke="red" stroke-width="0.147852" d="M171.829,-112.523C166.204,-101.684 155.84,-81.7116 146.716,-64.1295"/>
<polygon fill="red" stroke="red" stroke-width="0.147852" points="149.802,-62.478 142.089,-55.2141 143.589,-65.7023 149.802,-62.478"/>
</g>
<!-- 11852&#45;&gt;Output -->
<g id="edge10" class="edge"><title>11852&#45;&gt;Output</title>
<path fill="none" stroke="green" stroke-width="0.285668" d="M213.506,-102.882C197.772,-89.3113 175.837,-70.3911 158.258,-55.2281"/>
<polygon fill="green" stroke="green" stroke-width="0.285668" points="160.384,-52.4396 150.525,-48.5584 155.812,-57.7402 160.384,-52.4396"/>
</g>
</g>
</svg>
