<?xml version="1.0" encoding="UTF-8" standalone="no"?>
<!DOCTYPE svg PUBLIC "-//W3C//DTD SVG 1.1//EN"
 "http://www.w3.org/Graphics/SVG/1.1/DTD/svg11.dtd">
<!-- Generated by graphviz version 2.38.0 (20140413.2041)
 -->
<!-- Title: %3 Pages: 1 -->
<svg width="326pt" height="120pt"
 viewBox="0.00 0.00 326.00 119.98" xmlns="http://www.w3.org/2000/svg" xmlns:xlink="http://www.w3.org/1999/xlink">
<g id="graph0" class="graph" transform="scale(1 1) rotate(0) translate(4 115.983)">
<title>%3</title>
<polygon fill="white" stroke="none" points="-4,4 -4,-115.983 322,-115.983 322,4 -4,4"/>
<!-- I1 -->
<g id="node1" class="node"><title>I1</title>
<polygon fill="lightgray" stroke="black" points="24,-111.983 0,-111.983 0,-93.9828 24,-93.9828 24,-111.983"/>
<text text-anchor="middle" x="12" y="-100.783" font-family="Times,serif" font-size="9.00">I1</text>
</g>
<!-- Output -->
<g id="node9" class="node"><title>Output</title>
<ellipse fill="lightblue" stroke="black" cx="75" cy="-28.9914" rx="28.9828" ry="28.9828"/>
<text text-anchor="middle" x="75" y="-26.7914" font-family="Times,serif" font-size="9.00">Output</text>
</g>
<!-- I1&#45;&gt;Output -->
<g id="edge4" class="edge"><title>I1&#45;&gt;Output</title>
<path fill="none" stroke="green" stroke-width="0.206471" d="M19.2269,-93.7244C26.6677,-85.2217 38.6933,-71.4798 49.6763,-58.9293"/>
<polygon fill="green" stroke="green" stroke-width="0.206471" points="52.3781,-61.1566 56.3297,-51.3263 47.1103,-56.5468 52.3781,-61.1566"/>
</g>
<!-- I2 -->
<g id="node2" class="node"><title>I2</title>
<polygon fill="lightgray" stroke="black" points="66,-111.983 42,-111.983 42,-93.9828 66,-93.9828 66,-111.983"/>
<text text-anchor="middle" x="54" y="-100.783" font-family="Times,serif" font-size="9.00">I2</text>
</g>
<!-- I2&#45;&gt;Output -->
<g id="edge3" class="edge"><title>I2&#45;&gt;Output</title>
<path fill="none" stroke="green" stroke-width="0.454901" d="M56.409,-93.7244C58.3847,-86.9512 61.3303,-76.8534 64.2974,-66.6816"/>
<polygon fill="green" stroke="green" stroke-width="0.454901" points="67.6774,-67.5928 67.1178,-57.0127 60.9575,-65.6325 67.6774,-67.5928"/>
</g>
<!-- I3 -->
<g id="node3" class="node"><title>I3</title>
<polygon fill="lightgray" stroke="black" points="192,-111.983 168,-111.983 168,-93.9828 192,-93.9828 192,-111.983"/>
<text text-anchor="middle" x="180" y="-100.783" font-family="Times,serif" font-size="9.00">I3</text>
</g>
<!-- I4 -->
<g id="node4" class="node"><title>I4</title>
<polygon fill="lightgray" stroke="black" points="234,-111.983 210,-111.983 210,-93.9828 234,-93.9828 234,-111.983"/>
<text text-anchor="middle" x="222" y="-100.783" font-family="Times,serif" font-size="9.00">I4</text>
</g>
<!-- I5 -->
<g id="node5" class="node"><title>I5</title>
<polygon fill="lightgray" stroke="black" points="276,-111.983 252,-111.983 252,-93.9828 276,-93.9828 276,-111.983"/>
<text text-anchor="middle" x="264" y="-100.783" font-family="Times,serif" font-size="9.00">I5</text>
</g>
<!-- I6 -->
<g id="node6" class="node"><title>I6</title>
<polygon fill="lightgray" stroke="black" points="108,-111.983 84,-111.983 84,-93.9828 108,-93.9828 108,-111.983"/>
<text text-anchor="middle" x="96" y="-100.783" font-family="Times,serif" font-size="9.00">I6</text>
</g>
<!-- I6&#45;&gt;Output -->
<g id="edge2" class="edge"><title>I6&#45;&gt;Output</title>
<path fill="none" stroke="green" stroke-width="0.365335" d="M93.591,-93.7244C91.6153,-86.9512 88.6697,-76.8534 85.7026,-66.6816"/>
<polygon fill="green" stroke="green" stroke-width="0.365335" points="89.0425,-65.6325 82.8822,-57.0127 82.3226,-67.5928 89.0425,-65.6325"/>
</g>
<!-- I7 -->
<g id="node7" class="node"><title>I7</title>
<polygon fill="lightgray" stroke="black" points="150,-111.983 126,-111.983 126,-93.9828 150,-93.9828 150,-111.983"/>
<text text-anchor="middle" x="138" y="-100.783" font-family="Times,serif" font-size="9.00">I7</text>
</g>
<!-- I7&#45;&gt;Output -->
<g id="edge1" class="edge"><title>I7&#45;&gt;Output</title>
<path fill="none" stroke="green" stroke-width="0.328393" d="M130.773,-93.7244C123.332,-85.2217 111.307,-71.4798 100.324,-58.9293"/>
<polygon fill="green" stroke="green" stroke-width="0.328393" points="102.89,-56.5468 93.6703,-51.3263 97.6219,-61.1566 102.89,-56.5468"/>
</g>
<!-- I8 -->
<g id="node8" class="node"><title>I8</title>
<polygon fill="lightgray" stroke="black" points="318,-111.983 294,-111.983 294,-93.9828 318,-93.9828 318,-111.983"/>
<text text-anchor="middle" x="306" y="-100.783" font-family="Times,serif" font-size="9.00">I8</text>
</g>
</g>
</svg>
